<?xml version="1.0" encoding="iso-8859-1"?>
<!-- Generator: Adobe Illustrator 19.0.0, SVG Export Plug-In . SVG Version: 6.00 Build 0)  -->
<svg version="1.1" id="Capa_1" xmlns="http://www.w3.org/2000/svg" xmlns:xlink="http://www.w3.org/1999/xlink" x="0px" y="0px"
	 viewBox="0 0 384 384" style="enable-background:new 0 0 384 384;" xml:space="preserve">
<path style="fill:#FFFFFF;" d="M41.6,284.877c-2.4,0-4-0.8-5.6-2.4s-2.4-3.2-2.4-5.6v-153.6H16v184h150.4
	C144.8,296.877,104,283.277,41.6,284.877z"/>
<g>
	<path style="fill:#2FBCD3;" d="M180,304.877c-18.4-10.4-58.4-28-127.2-28H41.6v-208h11.2c82.4,0,124.8,25.6,136,33.6l3.2,2.4v207.2
		L180,304.877z"/>
	<path style="fill:#2FBCD3;" d="M192,105.677l3.2-2.4c11.2-8,53.6-33.6,137.6-33.6h9.6v208H332c-68.8,0-109.6,17.6-128,28l-12,6.4
		V105.677z"/>
</g>
<path style="fill:#FFFFFF;" d="M350.4,276.877c0,2.4-0.8,4-2.4,5.6s-4,2.4-5.6,2.4c-62.4-1.6-102.4,11.2-124.8,22.4H368v-184h-17.6
	V276.877z"/>
<g>
	<path style="fill:#06383D;" d="M376,107.277h-25.6v-38.4c0-4.8-3.2-8-8-8c-89.6-2.4-136,24-150.4,34.4
		c-15.2-10.4-60.8-36.8-150.4-34.4c-4.8,0-8,3.2-8,8v38.4H8c-4.8,0-8,3.2-8,8v200c0,4.8,3.2,8,8,8h368c4.8,0,8-3.2,8-8v-200
		C384,111.277,380.8,107.277,376,107.277z M16,307.277v-184h17.6v153.6c0,2.4,0.8,4,2.4,5.6s4,2.4,5.6,2.4
		c62.4-1.6,103.2,12,124.8,22.4H16z M184,298.477c-19.2-11.2-60.8-29.6-131.2-29.6h-3.2v-192c82.4-0.8,124,24.8,134.4,32V298.477z
		 M200,109.677c10.4-7.2,52-32.8,134.4-32v192c-72-0.8-114.4,17.6-134.4,29.6V109.677z M368,307.277H217.6
		c21.6-10.4,62.4-24,124.8-22.4c2.4,0,4-0.8,5.6-2.4s2.4-3.2,2.4-5.6v-153.6H368V307.277z"/>
	<path style="fill:#06383D;" d="M319.2,109.677c-36.8,0.8-72,10.4-104,28.8c-4,2.4-4.8,7.2-2.4,11.2s7.2,4.8,11.2,2.4l0,0
		c28.8-16.8,61.6-25.6,95.2-26.4c4.8,0,8-3.2,8-8S324,109.677,319.2,109.677z"/>
	<path style="fill:#06383D;" d="M319.2,143.277c-36.8,0.8-72,10.4-104,28.8c-3.2,2.4-4,8-1.6,11.2s6.4,4,9.6,2.4
		c29.6-16.8,62.4-25.6,96-26.4c4.8,0,8-3.2,8-8S324,143.277,319.2,143.277z"/>
	<path style="fill:#06383D;" d="M319.2,176.077c-36.8,0.8-72,10.4-104,28.8c-3.2,2.4-4,8-1.6,11.2s6.4,4,9.6,2.4
		c29.6-16.8,62.4-25.6,96-26.4c4.8,0,8-3.2,8-8S324,176.077,319.2,176.077z"/>
	<path style="fill:#06383D;" d="M319.2,209.677c-36.8,0.8-72,10.4-104,28.8c-3.2,2.4-4,8-1.6,11.2s6.4,4,9.6,2.4
		c29.6-16.8,62.4-25.6,96-26.4c4.8,0,8-3.2,8-8S324,209.677,319.2,209.677z"/>
	<path style="fill:#06383D;" d="M67.2,125.677c33.6,0.8,66.4,10.4,95.2,26.4c4,1.6,8.8,0,10.4-4c1.6-3.2,0-7.2-2.4-9.6
		c-32-18.4-67.2-28-104-28.8c-4.8,0-8,3.2-8,8S61.6,125.677,67.2,125.677L67.2,125.677z"/>
	<path style="fill:#06383D;" d="M67.2,159.277c33.6,0.8,66.4,9.6,95.2,26.4c4,1.6,8.8,0,10.4-4c1.6-3.2,0-7.2-2.4-9.6
		c-32-18.4-67.2-28-104-28.8c-4.8,0-8,3.2-8,8S61.6,159.277,67.2,159.277L67.2,159.277z"/>
	<path style="fill:#06383D;" d="M67.2,192.077c33.6,0.8,66.4,10.4,95.2,26.4c4,1.6,8.8,0,10.4-4c1.6-3.2,0-7.2-2.4-9.6
		c-32-18.4-67.2-28-104-28.8c-4.8,0-8,3.2-8,8C58.4,188.877,61.6,192.877,67.2,192.077L67.2,192.077z"/>
	<path style="fill:#06383D;" d="M67.2,225.677c33.6,0.8,66.4,9.6,95.2,26.4c4,1.6,8.8,0,10.4-4c1.6-3.2,0-7.2-2.4-9.6
		c-32-18.4-67.2-28-104-28.8c-4.8,0-8,3.2-8,8S61.6,225.677,67.2,225.677L67.2,225.677z"/>
</g>
<g>
</g>
<g>
</g>
<g>
</g>
<g>
</g>
<g>
</g>
<g>
</g>
<g>
</g>
<g>
</g>
<g>
</g>
<g>
</g>
<g>
</g>
<g>
</g>
<g>
</g>
<g>
</g>
<g>
</g>
</svg>
